<?xml version="1.0" standalone="no"?>
<!DOCTYPE svg PUBLIC "-//W3C//DTD SVG 20010904//EN"
 "http://www.w3.org/TR/2001/REC-SVG-20010904/DTD/svg10.dtd">
<svg version="1.0" xmlns="http://www.w3.org/2000/svg"
 width="500.000000pt" height="500.000000pt" viewBox="0 0 500.000000 500.000000"
 preserveAspectRatio="xMidYMid meet">
<metadata>
Created by potrace 1.14, written by Peter Selinger 2001-2017
</metadata>
<g transform="translate(0.000000,500.000000) scale(0.100000,-0.100000)"
fill="#000000" stroke="none">
<path d="M0 2500 l0 -2500 2500 0 2500 0 0 2500 0 2500 -2500 0 -2500 0 0
-2500z m2681 2372 c4 -4 23 -76 44 -159 20 -84 40 -153 44 -153 3 0 42 63 86
140 47 82 86 140 95 140 8 0 32 -3 52 -6 l36 -6 -18 -37 c-35 -67 -70 -318
-51 -371 l11 -32 -48 6 c-26 4 -61 9 -79 12 l-31 6 19 43 c21 47 62 292 47
277 -5 -5 -47 -74 -92 -152 -45 -78 -86 -142 -92 -141 -5 1 -30 83 -56 182
-26 100 -49 183 -51 185 -9 9 -39 -271 -34 -311 7 -45 6 -45 -23 -45 -35 0
-36 4 -11 61 20 45 51 228 51 299 0 21 -4 49 -9 63 l-9 24 56 -9 c32 -5 60
-12 63 -16z m-661 -234 c63 -83 131 -165 151 -181 l37 -31 -87 -28 c-47 -15
-87 -28 -89 -28 -1 0 2 9 8 20 8 15 6 28 -9 58 -32 62 -39 65 -110 41 l-63
-21 7 -47 c9 -57 21 -81 43 -82 9 0 -10 -9 -43 -20 -32 -10 -61 -17 -62 -15
-2 2 3 19 11 38 21 50 36 183 36 319 0 119 2 127 40 128 8 0 67 -68 130 -151z
m1429 23 c12 -8 11 -35 -3 -184 -19 -187 -21 -254 -11 -287 6 -18 -3 -16 -80
22 -48 24 -79 44 -71 46 22 5 46 54 46 94 0 31 -5 36 -56 61 -62 31 -69 29
-105 -30 -12 -18 -19 -43 -16 -53 6 -25 6 -25 -54 6 l-51 25 49 24 c51 26 219
172 279 243 36 43 48 48 73 33z m-1934 -251 c9 -107 20 -209 24 -227 l6 -32
55 35 c64 40 74 60 66 133 l-5 53 36 -57 c29 -46 33 -59 22 -66 -8 -4 -70 -44
-139 -88 l-125 -80 -6 32 c-4 18 -15 120 -24 227 -10 107 -21 201 -24 208 -5
9 -22 2 -62 -26 l-54 -38 -5 -64 -5 -64 -27 42 c-16 23 -28 46 -28 51 0 5 60
48 132 95 90 58 135 82 139 73 3 -6 14 -100 24 -207z m2449 -116 c8 -11 19
-37 25 -59 12 -45 -5 -97 -37 -114 -26 -14 -88 -14 -114 0 -11 6 -22 8 -25 6
-13 -13 -54 -203 -48 -225 5 -21 -3 -17 -54 28 l-60 52 23 21 c13 12 37 57 54
99 24 62 28 79 17 88 -10 8 -22 -1 -54 -39 -22 -27 -49 -68 -60 -91 l-18 -41
-58 53 -57 53 47 31 c60 39 210 207 232 260 l17 41 78 -71 c43 -39 85 -80 92
-92z m-2810 -190 l79 -225 49 48 c53 52 60 84 33 148 -13 33 -13 35 3 26 9 -5
30 -23 46 -40 l29 -30 -81 -88 c-124 -136 -148 -157 -155 -138 -4 8 -39 107
-78 218 -39 111 -74 206 -78 210 -4 4 -26 -13 -49 -37 -45 -49 -53 -86 -32
-142 16 -41 3 -41 -40 1 l-39 38 112 118 c62 65 114 119 117 119 3 0 41 -101
84 -226z m3085 -120 l30 -40 -43 -12 c-53 -14 -263 -165 -291 -209 -11 -18
-24 -31 -29 -30 -5 2 -29 31 -53 65 -41 56 -43 62 -24 62 12 0 41 10 64 21 63
33 221 153 253 193 l29 36 17 -23 c10 -12 31 -40 47 -63z m-3350 -148 c122
-80 157 -98 203 -105 l37 -6 -35 -55 c-19 -30 -39 -61 -43 -69 -7 -11 -17 -4
-46 27 -20 23 -83 70 -139 105 -112 69 -147 87 -176 87 -11 0 -20 3 -20 7 0 4
19 35 42 70 l41 64 20 -30 c10 -17 62 -60 116 -95z m1747 -51 c117 -12 222
-84 291 -199 20 -34 38 -63 40 -65 2 -3 13 5 26 16 51 46 148 55 261 24 114
-32 185 -116 206 -244 12 -78 1 -145 -36 -221 -39 -80 -75 -118 -140 -151 -49
-24 -71 -29 -129 -28 -84 0 -178 32 -202 69 -8 13 -19 59 -23 102 -4 49 -8 62
-9 35 -2 -68 -39 -153 -85 -197 -23 -21 -71 -53 -108 -71 -55 -27 -84 -34
-160 -39 -184 -13 -317 26 -406 117 -43 45 -81 134 -84 195 0 20 -4 0 -7 -45
-8 -95 -18 -110 -94 -144 -38 -16 -71 -23 -122 -23 -128 0 -216 60 -281 192
-26 51 -29 68 -29 152 1 75 5 105 21 141 26 56 77 115 118 136 111 57 272 56
327 -3 l22 -24 30 53 c113 198 259 255 573 222z m1724 -75 c90 -46 142 -169
115 -272 -36 -141 -230 -215 -347 -132 -84 60 -128 189 -94 279 20 51 88 116
138 132 57 19 145 15 188 -7z m-3639 -88 c41 -37 49 -96 21 -169 l-20 -52 57
-22 c31 -12 77 -24 104 -27 53 -5 53 0 13 -97 l-22 -56 -20 22 c-41 45 -276
139 -349 139 l-44 0 25 68 c75 203 153 268 235 194z m1400 -752 c30 -27 86
-67 124 -87 l70 -38 185 0 185 0 69 35 c38 19 96 59 127 88 l58 53 43 -22 c24
-12 69 -24 104 -27 l62 -5 6 -161 c14 -368 14 -570 1 -553 -7 9 -21 17 -31 17
-16 0 -15 -2 5 -13 13 -6 37 -37 54 -67 24 -45 28 -49 24 -24 -4 23 -1 36 12
48 25 22 31 20 32 -11 2 -26 2 -26 6 -4 7 35 -12 49 -37 26 -22 -20 -25 -19
-34 12 -5 15 -1 28 13 42 28 28 47 26 67 -4 31 -47 4 -215 -34 -215 -11 0 -13
8 -9 37 4 25 3 33 -4 26 -6 -6 -9 -23 -7 -39 2 -21 9 -30 26 -32 63 -9 36
-120 -41 -169 -28 -18 -42 -22 -45 -14 -3 9 -11 6 -26 -7 -35 -32 -119 -72
-152 -72 -17 0 -64 11 -104 25 -40 14 -83 25 -94 24 -24 -1 -28 1 85 -33 103
-31 137 -32 190 -5 64 32 43 3 -51 -74 -107 -86 -155 -109 -240 -115 -93 -6
-163 12 -211 56 -22 19 -39 41 -39 48 0 8 -4 14 -10 14 -5 0 -10 -9 -10 -20 0
-26 -66 -73 -125 -90 -65 -18 -179 -9 -235 20 -47 24 -159 111 -199 154 -29
31 -27 32 27 6 53 -26 79 -25 176 4 45 13 90 26 101 29 l20 5 -20 1 c-11 0
-56 -10 -100 -24 -44 -14 -93 -25 -108 -25 -29 0 -96 30 -135 61 -13 10 -29
16 -36 13 -18 -7 -77 36 -103 75 -37 54 -27 111 19 111 11 0 18 7 17 18 0 10
-3 12 -6 5 -9 -23 -29 -13 -41 20 -45 127 -1 258 62 188 13 -15 16 -28 11 -51
-6 -29 -8 -30 -21 -13 -14 17 -14 16 -4 -5 6 -13 8 -37 4 -60 -7 -35 -8 -35
-15 -12 -4 14 -7 18 -8 8 -1 -22 9 -48 20 -48 5 0 9 12 9 27 0 39 59 133 85
134 19 1 19 2 0 6 -13 4 -27 -4 -42 -23 l-24 -29 11 28 c5 16 10 48 10 73 0
41 2 44 19 34 11 -5 26 -10 33 -10 7 1 -2 7 -21 16 l-34 14 6 98 c4 53 7 188
7 298 l0 202 63 4 c36 2 79 12 102 25 22 11 43 21 46 22 3 0 30 -21 60 -49z
m-216 -1142 c4 4 5 2 1 -5 -12 -22 130 -145 223 -194 96 -49 270 -33 337 32
l32 31 39 -30 c52 -43 113 -62 194 -62 87 0 152 24 233 86 84 66 185 162 177
170 -3 4 0 4 6 0 7 -4 22 -2 33 4 19 10 20 9 14 -17 -30 -126 -108 -257 -209
-351 -76 -71 -160 -120 -270 -158 -68 -23 -97 -27 -200 -28 -139 -1 -196 11
-310 64 -103 48 -191 115 -253 193 -70 87 -142 234 -142 289 0 18 3 17 43 -7
24 -14 47 -22 52 -17z"/>
<path d="M1860 4574 c0 -94 0 -95 23 -88 63 20 86 30 88 37 1 9 -100 147 -107
147 -2 0 -4 -43 -4 -96z"/>
<path d="M3281 4516 l-64 -64 51 -26 c28 -14 55 -26 60 -26 5 0 13 41 18 90 5
50 7 90 4 90 -3 0 -34 -29 -69 -64z"/>
<path d="M3808 4279 c-32 -33 -58 -65 -58 -71 0 -18 33 -37 63 -38 87 -1 162
105 109 153 -31 28 -54 19 -114 -44z"/>
<path d="M4222 3631 c-73 -27 -141 -79 -165 -124 -17 -33 -18 -44 -8 -78 7
-21 23 -46 37 -55 60 -40 170 -24 274 38 96 58 127 139 76 203 -21 26 -30 29
-92 32 -50 2 -84 -2 -122 -16z"/>
<path d="M550 3550 c-40 -40 -15 -77 79 -114 81 -33 88 -32 96 3 9 44 -18 89
-68 112 -54 24 -82 24 -107 -1z"/>
<path d="M1930 2230 c8 -5 22 -9 30 -9 10 0 8 3 -5 9 -27 12 -43 12 -25 0z"/>
<path d="M3038 2223 c7 -3 16 -2 19 1 4 3 -2 6 -13 5 -11 0 -14 -3 -6 -6z"/>
<path d="M1998 2213 c7 -3 16 -2 19 1 4 3 -2 6 -13 5 -11 0 -14 -3 -6 -6z"/>
<path d="M2988 2213 c7 -3 16 -2 19 1 4 3 -2 6 -13 5 -11 0 -14 -3 -6 -6z"/>
<path d="M2038 2203 c6 -2 18 -2 25 0 6 3 1 5 -13 5 -14 0 -19 -2 -12 -5z"/>
<path d="M2948 2203 c7 -3 16 -2 19 1 4 3 -2 6 -13 5 -11 0 -14 -3 -6 -6z"/>
<path d="M2113 2193 c9 -2 23 -2 30 0 6 3 -1 5 -18 5 -16 0 -22 -2 -12 -5z"/>
<path d="M2863 2193 c9 -2 23 -2 30 0 6 3 -1 5 -18 5 -16 0 -22 -2 -12 -5z"/>
<path d="M2173 2183 c9 -2 25 -2 35 0 9 3 1 5 -18 5 -19 0 -27 -2 -17 -5z"/>
<path d="M2803 2183 c9 -2 23 -2 30 0 6 3 -1 5 -18 5 -16 0 -22 -2 -12 -5z"/>
<path d="M2263 2173 c9 -2 23 -2 30 0 6 3 -1 5 -18 5 -16 0 -22 -2 -12 -5z"/>
<path d="M2713 2173 c9 -2 23 -2 30 0 6 3 -1 5 -18 5 -16 0 -22 -2 -12 -5z"/>
<path d="M2328 2163 c6 -2 18 -2 25 0 6 3 1 5 -13 5 -14 0 -19 -2 -12 -5z"/>
<path d="M2648 2163 c6 -2 18 -2 25 0 6 3 1 5 -13 5 -14 0 -19 -2 -12 -5z"/>
<path d="M1918 2153 c7 -3 16 -2 19 1 4 3 -2 6 -13 5 -11 0 -14 -3 -6 -6z"/>
<path d="M2448 2153 c28 -2 76 -2 105 0 28 2 5 3 -53 3 -58 0 -81 -1 -52 -3z"/>
<path d="M3078 2153 c7 -3 16 -2 19 1 4 3 -2 6 -13 5 -11 0 -14 -3 -6 -6z"/>
<path d="M1958 2143 c7 -3 16 -2 19 1 4 3 -2 6 -13 5 -11 0 -14 -3 -6 -6z"/>
<path d="M3028 2143 c7 -3 16 -2 19 1 4 3 -2 6 -13 5 -11 0 -14 -3 -6 -6z"/>
<path d="M1998 2133 c6 -2 18 -2 25 0 6 3 1 5 -13 5 -14 0 -19 -2 -12 -5z"/>
<path d="M2978 2133 c6 -2 18 -2 25 0 6 3 1 5 -13 5 -14 0 -19 -2 -12 -5z"/>
<path d="M2058 2123 c6 -2 18 -2 25 0 6 3 1 5 -13 5 -14 0 -19 -2 -12 -5z"/>
<path d="M2918 2123 c6 -2 18 -2 25 0 6 3 1 5 -13 5 -14 0 -19 -2 -12 -5z"/>
<path d="M2118 2113 c23 -5 23 -5 5 -25 l-18 -21 27 18 c33 20 28 36 -10 34
-25 -2 -25 -2 -4 -6z"/>
<path d="M2847 2113 c-7 -7 22 -32 38 -32 6 0 1 5 -10 11 -19 12 -19 12 5 19
l25 7 -26 1 c-14 1 -29 -2 -32 -6z"/>
<path d="M2193 2103 c9 -2 23 -2 30 0 6 3 -1 5 -18 5 -16 0 -22 -2 -12 -5z"/>
<path d="M2783 2103 c9 -2 23 -2 30 0 6 3 -1 5 -18 5 -16 0 -22 -2 -12 -5z"/>
<path d="M1741 2084 c0 -11 3 -14 6 -6 3 7 2 16 -1 19 -3 4 -6 -2 -5 -13z"/>
<path d="M2258 2093 c12 -2 30 -2 40 0 9 3 -1 5 -23 4 -22 0 -30 -2 -17 -4z"/>
<path d="M2713 2093 c9 -2 25 -2 35 0 9 3 1 5 -18 5 -19 0 -27 -2 -17 -5z"/>
<path d="M2423 2083 c42 -2 112 -2 155 0 42 1 7 3 -78 3 -85 0 -120 -2 -77 -3z"/>
<path d="M3231 2054 c0 -11 3 -14 6 -6 3 7 2 16 -1 19 -3 4 -6 -2 -5 -13z"/>
<path d="M2223 2019 c-63 -31 -63 -53 0 -23 55 25 125 31 159 13 11 -6 22 -8
25 -6 3 3 -9 13 -26 21 -42 22 -108 20 -158 -5z"/>
<path d="M2621 2024 c-40 -17 -37 -29 3 -14 47 18 110 12 160 -15 57 -31 57
-10 0 22 -46 26 -112 29 -163 7z"/>
<path d="M2394 1816 c-3 -8 -4 -23 -2 -33 3 -11 6 -6 9 15 6 34 2 42 -7 18z"/>
<path d="M2427 1792 c-24 -26 -21 -55 8 -82 21 -19 32 -22 80 -18 l55 5 -22
-26 c-17 -19 -10 -16 28 12 28 20 62 41 75 46 13 5 17 10 9 10 -8 1 -30 -8
-48 -19 -39 -24 -49 -25 -32 -5 6 8 10 20 7 27 -4 8 -6 7 -6 -4 -1 -24 -32
-38 -84 -38 -47 0 -77 21 -77 55 0 10 7 27 17 37 9 10 14 18 11 18 -3 0 -12
-8 -21 -18z"/>
<path d="M2066 1785 c9 -22 -24 -55 -55 -56 -25 -2 -25 -2 -3 -6 39 -8 92 54
62 72 -6 3 -7 -1 -4 -10z"/>
<path d="M2606 1783 c-6 -14 -5 -15 5 -6 7 7 10 15 7 18 -3 3 -9 -2 -12 -12z"/>
<path d="M2930 1762 c0 -17 42 -42 70 -41 21 1 19 2 -10 9 -18 5 -40 16 -47
26 -7 10 -13 13 -13 6z"/>
<path d="M2288 1743 c7 -3 16 -2 19 1 4 3 -2 6 -13 5 -11 0 -14 -3 -6 -6z"/>
<path d="M2708 1743 c7 -3 16 -2 19 1 4 3 -2 6 -13 5 -11 0 -14 -3 -6 -6z"/>
<path d="M2345 1730 c28 -12 37 -12 30 0 -3 6 -16 10 -28 9 -21 0 -21 -1 -2
-9z"/>
<path d="M2425 1687 c22 -19 42 -33 44 -31 5 4 -37 41 -64 55 -11 6 -2 -5 20
-24z"/>
</g>
</svg>
